<svg xmlns="http://www.w3.org/2000/svg" width="723.3493" height="154.7959" viewBox="0 0 723.3493 154.7959"><polygon points="1.214 20.211 1.217 20.218 1.208 20.218 1.214 20.211" fill="none" stroke="#ccc" stroke-linecap="round" stroke-linejoin="round" stroke-width="0.3136"/><path d="M133.2861,38.3853q0,5.5952-.4554,11.0819a169.2792,169.2792,0,0,0-132.3862,0Q.0054,43.9859,0,38.3853A135.6715,135.6715,0,0,1,1.2144,20.2228a85.4476,85.4476,0,0,0,10.3337.6289A82.9359,82.9359,0,0,0,66.643,0a82.915,82.915,0,0,0,55.0949,20.8517,85.5812,85.5812,0,0,0,10.3337-.6289A135.6549,135.6549,0,0,1,133.2861,38.3853Z" fill="#5a67f0"/><path d="M98.9241,128.3481a135.36,135.36,0,0,1-32.2836,26.4478A135.3425,135.3425,0,0,1,34.36,128.3481a83.4435,83.4435,0,0,1,64.5641,0Z" fill="#f8e241"/><path d="M113.2016,109.2507a135.2206,135.2206,0,0,1-14.2775,19.0974,83.4435,83.4435,0,0,0-64.5641,0,135.2213,135.2213,0,0,1-14.2776-19.0974,106.0945,106.0945,0,0,1,93.1192,0Z" fill="#020407"/><path d="M123.7444,88.3189a134.4067,134.4067,0,0,1-10.5428,20.9318,106.0945,106.0945,0,0,0-93.1192,0A134.3109,134.3109,0,0,1,9.54,88.3158a130.191,130.191,0,0,1,114.2048.0031Z" fill="#f8e241"/><path d="M130.5319,65.6454a133.8463,133.8463,0,0,1-6.7879,22.6734,130.1373,130.1373,0,0,0-114.2019,0A133.8372,133.8372,0,0,1,2.7542,65.6454a153.7657,153.7657,0,0,1,127.7777,0Z" fill="#020407"/><path d="M180.1705,109.8389V44.9561h25.5147q9.6445,0,14.0723,4.4287t4.4277,12.581a19.3819,19.3819,0,0,1-1.0957,6.7959,12.4214,12.4214,0,0,1-3.1123,4.8223,10.7476,10.7476,0,0,1-4.8223,2.5859,15.8177,15.8177,0,0,1,4.0772,1.666,13.6583,13.6583,0,0,1,3.5947,3.0694,14.1685,14.1685,0,0,1,2.542,4.69,20.0759,20.0759,0,0,1,.9209,6.3564q0,6.5757-2.2354,10.5215a12.6445,12.6445,0,0,1-6.5761,5.6553,29.1727,29.1727,0,0,1-10.6534,1.71Zm12.9766-38.1407h12.626a5.3313,5.3313,0,0,0,4.4277-2.0605,8.46,8.46,0,0,0,1.6221-5.3916q.0864-4.2949-1.7539-5.9619a6.428,6.428,0,0,0-4.4717-1.666h-12.45Zm0,26.48h13.3272a8.3563,8.3563,0,0,0,3.9453-.8769,5.9918,5.9918,0,0,0,2.5869-2.7178,11.0611,11.0611,0,0,0,.9209-4.91,8.8219,8.8219,0,0,0-.9649-4.2969,6.9529,6.9529,0,0,0-2.63-2.7178,7.5691,7.5691,0,0,0-3.8584-.9639H193.1471Z" fill="#020407"/><path d="M250.9274,110.2773a34.0472,34.0472,0,0,1-4.8223-.3945,14.9681,14.9681,0,0,1-5.2168-1.7978,10.8858,10.8858,0,0,1-4.1211-4.252,15.9252,15.9252,0,0,1-1.622-7.8476V59.7744a17.3626,17.3626,0,0,1,1.3154-7.1894,11.6215,11.6215,0,0,1,3.5068-4.56,13.802,13.802,0,0,1,4.8223-2.3672,20.0142,20.0142,0,0,1,5.1728-.7021q6.5772,0,11.6182.1757,5.04.1773,9.0742.3946,4.0327.22,7.3653.57V56.9688H253.8209a6.1526,6.1526,0,0,0-4.209,1.3154,5.1008,5.1008,0,0,0-1.49,4.0332v9.3808l25.6895.7022V82.6582l-25.6895.7012v8.9433a7.0515,7.0515,0,0,0,.7451,3.5518,3.9021,3.9021,0,0,0,2.0166,1.7529,7.4539,7.4539,0,0,0,2.6748.4824H278.02v10.8721q-3.8585.44-8.5489.7012-4.6918.2637-9.4687.4385Q255.2227,110.2774,250.9274,110.2773Z" fill="#020407"/><path d="M302.3942,110.2773a34.0472,34.0472,0,0,1-4.8223-.3945,14.9681,14.9681,0,0,1-5.2168-1.7978,10.8858,10.8858,0,0,1-4.1211-4.252,15.9251,15.9251,0,0,1-1.6221-7.8476V59.7744a17.3625,17.3625,0,0,1,1.3155-7.1894,11.6215,11.6215,0,0,1,3.5068-4.56,13.8012,13.8012,0,0,1,4.8223-2.3672,20.0142,20.0142,0,0,1,5.1728-.7021q6.5772,0,11.6182.1757,5.04.1773,9.0742.3946,4.0328.22,7.3652.57V56.9688H305.2877a6.1526,6.1526,0,0,0-4.209,1.3154,5.1008,5.1008,0,0,0-1.49,4.0332v9.3808l25.69.7022V82.6582l-25.69.7012v8.9433a7.0515,7.0515,0,0,0,.7451,3.5518,3.9021,3.9021,0,0,0,2.0166,1.7529,7.4539,7.4539,0,0,0,2.6748.4824h24.4619v10.8721q-3.8583.44-8.5488.7012-4.6918.2637-9.4687.4385Q306.69,110.2774,302.3942,110.2773Z" fill="#020407"/><path d="M338.9547,109.8389V44.9561H366.31a29.16,29.16,0,0,1,6.4453.746,14.6966,14.6966,0,0,1,6.05,2.98,15.5447,15.5447,0,0,1,4.4717,6.708,33.827,33.827,0,0,1,1.709,11.836,34.5964,34.5964,0,0,1-1.709,11.9248,16.8076,16.8076,0,0,1-4.4287,6.9267,14.1113,14.1113,0,0,1-5.874,3.1563,25.2626,25.2626,0,0,1-6.1377.789q-1.5777,0-3.6827-.1318-2.1035-.13-4.2519-.3945-2.15-.2622-3.9893-.4825-1.8412-.2168-2.9814-.3945v21.2188Zm12.9766-31.4766H364.82a6.804,6.804,0,0,0,3.9023-1.0957,6.48,6.48,0,0,0,2.4111-3.5078,21.3453,21.3453,0,0,0,.7891-6.4443,19.1183,19.1183,0,0,0-.833-6.2686,6.66,6.66,0,0,0-2.3672-3.376,6.28,6.28,0,0,0-3.6387-1.0517H351.9313Z" fill="#020407"/><path d="M384.46,109.8389l20.3418-64.8828h16.3955l20.3418,64.8828H428.0368l-4.1211-13.59H401.82l-4.0332,13.59Zm20.43-25.252h15.957l-7.9785-28.4951Z" fill="#020407"/><path d="M468.193,110.3652q-2.5444,0-5.2168-.1318-2.6763-.1319-5.4365-.4385t-5.2168-.7011q-2.4551-.3956-4.4717-.9209V97.9141q2.6308.2635,5.9619.4384,3.331.1773,6.9268.2637t6.8388.0879a25.2105,25.2105,0,0,0,5.7432-.57,7.0768,7.0768,0,0,0,3.7266-2.0166,5.7092,5.7092,0,0,0,1.3154-3.9893V89.7607a5.6413,5.6413,0,0,0-1.71-4.4277,7.0439,7.0439,0,0,0-4.8662-1.5351h-5.5234q-9.296,0-14.2481-4.0772-4.9556-4.0767-4.9541-13.8965V62.668q0-9.47,5.4366-13.8535,5.4345-4.3828,15.5185-4.3838,3.5947,0,7.1465.3506t6.8389.833q3.2871.4833,5.6552,1.0078V56.8809q-4.0341-.2637-8.9873-.5264t-9.1621-.2627a22.3472,22.3472,0,0,0-5.3047.57A6.192,6.192,0,0,0,460.652,58.81a7.1423,7.1423,0,0,0-1.2276,4.4717v1.7539q0,3.4189,1.93,4.91a9.2035,9.2035,0,0,0,5.6993,1.49h6.4a19.5737,19.5737,0,0,1,9.6885,2.1485,13.7466,13.7466,0,0,1,5.6992,5.918,18.9719,18.9719,0,0,1,1.8848,8.5927v3.6826q0,7.6275-2.85,11.6612a14.09,14.09,0,0,1-7.8906,5.48A42.9593,42.9593,0,0,1,468.193,110.3652Z" fill="#020407"/><path d="M519.8346,110.3652q-2.5445,0-5.2168-.1318-2.6763-.1319-5.4365-.4385t-5.2168-.7011q-2.455-.3956-4.4717-.9209V97.9141q2.6309.2635,5.9619.4384,3.3311.1773,6.9268.2637t6.8388.0879a25.2105,25.2105,0,0,0,5.7432-.57,7.0768,7.0768,0,0,0,3.7266-2.0166,5.7092,5.7092,0,0,0,1.3154-3.9893V89.7607a5.6413,5.6413,0,0,0-1.71-4.4277,7.0439,7.0439,0,0,0-4.8662-1.5351h-5.5234q-9.2959,0-14.2481-4.0772-4.9555-4.0767-4.9541-13.8965V62.668q0-9.47,5.4366-13.8535,5.4345-4.3828,15.5185-4.3838,3.5947,0,7.1465.3506t6.8389.833q3.2871.4833,5.6552,1.0078V56.8809q-4.0341-.2637-8.9873-.5264t-9.1621-.2627a22.3472,22.3472,0,0,0-5.3047.57,6.192,6.192,0,0,0-3.5517,2.1475,7.1423,7.1423,0,0,0-1.2276,4.4717v1.7539q0,3.4189,1.93,4.91a9.2035,9.2035,0,0,0,5.6993,1.49h6.4a19.5737,19.5737,0,0,1,9.6885,2.1485,13.7466,13.7466,0,0,1,5.6992,5.918,18.9719,18.9719,0,0,1,1.8848,8.5927v3.6826q0,7.6275-2.85,11.6612a14.09,14.09,0,0,1-7.8906,5.48A42.9593,42.9593,0,0,1,519.8346,110.3652Z" fill="#020407"/><path d="M574.0338,109.8394,553.692,44.9565h13.4151L582.276,95.811l15.168-50.8545h13.3271l-20.3418,64.8829Z" fill="#828281"/><path d="M617.8727,109.8394V44.9565h27.3555a29.154,29.154,0,0,1,6.4453.7461,14.6966,14.6966,0,0,1,6.05,2.9805,15.5456,15.5456,0,0,1,4.4717,6.708,33.8272,33.8272,0,0,1,1.7089,11.836,34.5967,34.5967,0,0,1-1.7089,11.9248,16.8078,16.8078,0,0,1-4.4288,6.9267,14.1118,14.1118,0,0,1-5.874,3.1563,25.262,25.262,0,0,1-6.1377.789q-1.5775,0-3.6826-.1318-2.1035-.13-4.2519-.3945-2.15-.2622-3.9893-.4825-1.8412-.2168-2.9814-.3945v21.2188Zm12.9766-31.4766h12.8886a6.8041,6.8041,0,0,0,3.9024-1.0957,6.4814,6.4814,0,0,0,2.4111-3.5078,21.3456,21.3456,0,0,0,.7891-6.4444,19.1208,19.1208,0,0,0-.833-6.2685A6.66,6.66,0,0,0,647.64,57.67a6.28,6.28,0,0,0-3.6387-1.0517H630.8493Z" fill="#828281"/><path d="M672.7584,109.8394V44.9565H683.192l27.1807,42.7881V44.9565h12.9766v64.8829H712.9157L685.8229,67.0522v42.7872Z" fill="#828281"/></svg>